{"title":"The Walking Dead s02e03 HDTV XViD AC3 DTRG","uid":6785109,"size":570798479,"categoryP":"video","categoryS":"tv_shows","magnet":"?xt=urn:btih:0a5f63ee020bbb7c853264bee2aad82040a8f057&amp;dn=The+Walking+Dead+s02e03+HDTV+XViD+AC3+DTRG&amp;tr=udp%3A%2F%2Ftracker.openbittorrent.com%3A80&amp;tr=udp%3A%2F%2Fopen.demonii.com%3A1337&amp;tr=udp%3A%2F%2Ftracker.coppersurfer.tk%3A6969&amp;tr=udp%3A%2F%2Fexodus.desync.com%3A6969","seeders":3,"leechers":0,"uploader":"SAFCukO09","files":3,"time":1320059509,"description":"Format : AVI\nFormat/Info : Audio Video Interleave\nFile size : 544 MiB\nDuration : 42mn 46s\nOverall bit rate : 1 779 Kbps\nWriting application : VirtualDubMod 1.5.10.2 (build 2540/release)\nWriting library : VirtualDubMod build 2540/release\n\nVideo\nID : 0\nFormat : MPEG-4 Visual\nFormat profile : Advanced Simple@L5\nFormat settings, BVOP : 2\nFormat settings, QPel : No\nFormat settings, GMC : No warppoints\nFormat settings, Matrix : Default (H.263)\nMuxing mode : Packed bitstream\nCodec ID : XVID\nCodec ID/Hint : XviD\nDuration : 42mn 46s\nBit rate : 1 386 Kbps\nWidth : 624 pixels\nHeight : 352 pixels\nDisplay aspect ratio : 16:9\nFrame rate : 23.976 fps\nColor space : YUV\nChroma subsampling : 4:2:0\nBit depth : 8 bits\nScan type : Progressive\nCompression mode : Lossy\nBits/(Pixel*Frame) : 0.263\nStream size : 424 MiB (78%)\nWriting library : XviD 64\n\nAudio\nID : 1\nFormat : AC-3\nFormat/Info : Audio Coding 3\nMode extension : CM (complete main)\nCodec ID : 2000\nDuration : 42mn 46s\nBit rate mode : Constant\nBit rate : 384 Kbps\nChannel(s) : 6 channels\nChannel positions : Front: L C R, Side: L R, LFE\nSampling rate : 48.0 KHz\nBit depth : 16 bits\nCompression mode : Lossy\nStream size : 117 MiB (22%)\nAlignment : Split accross interleaves\nInterleave, duration : 42 ms (1.00 video frame)\nInterleave, preload duration : 500 ms\n\n\n\n\n\n\n\n\nThe Walking Dead: Save the Last one\n\nThe group desperately awaits Shane's return. Shane finds himself trapped in a school, surrounded by the undead. Daryl and Andrea search for someone in the woods.\n\n\n\n\n\n\n\n\n\n\n\n\n\n\n\n\n\n\n\n\n\n\nSource Used\n\n\nIMMERSE x264 720p .........Thanks\n\n\n\n\nEnjoy\n\n\n\n\n\nGreetz to IMAGiNE,Flawl3ss,BDK,Ez,CreWsaDe,TaRiQ786,ETRG,BHRG,iLLUMiNATi,ViSUALiSE,MiSTERE\n","torrent":{"xt":"urn:btih:0a5f63ee020bbb7c853264bee2aad82040a8f057","amp;dn":"The+Walking+Dead+s02e03+HDTV+XViD+AC3+DTRG","amp;tr":["udp%3A%2F%2Ftracker.openbittorrent.com%3A80","udp%3A%2F%2Fopen.demonii.com%3A1337","udp%3A%2F%2Ftracker.coppersurfer.tk%3A6969","udp%3A%2F%2Fexodus.desync.com%3A6969"],"infoHash":"0a5f63ee020bbb7c853264bee2aad82040a8f057","infoHashBuffer":{"type":"Buffer","data":[10,95,99,238,2,11,187,124,133,50,100,190,226,170,216,32,64,168,240,87]},"announce":[],"urlList":[]}}